<?xml version="1.0" encoding="utf-8"?>
<!-- Generator: Adobe Illustrator 24.3.0, SVG Export Plug-In . SVG Version: 6.00 Build 0)  -->
<svg version="1.1" id="Layer_1" xmlns="http://www.w3.org/2000/svg" xmlns:xlink="http://www.w3.org/1999/xlink" x="0px" y="0px"
	 viewBox="0 0 425 425" enable-background="new 0 0 425 425" xml:space="preserve">
<g>
	<linearGradient id="SVGID_1_" gradientUnits="userSpaceOnUse" x1="-245.9917" y1="485.3535" x2="1762.0083" y2="-606.6447">
		<stop  offset="0" style="stop-color:#00C9FF"/>
		<stop  offset="1" style="stop-color:#3B72DE"/>
	</linearGradient>
	<path fill="white" d="M333.318,327.34l-15.07-56.239c9.876-17.77,15.14-37.851,15.14-58.649
		c0-16.324-3.198-32.163-9.506-47.075c-6.091-14.402-14.811-27.335-25.915-38.44c-11.105-11.105-24.038-19.824-38.439-25.916
		c-14.913-6.307-30.752-9.506-47.075-9.506c-16.324,0-32.163,3.199-47.076,9.506c-14.401,6.091-27.334,14.811-38.439,25.916
		c-11.104,11.105-19.824,24.038-25.915,38.44c-6.308,14.912-9.506,30.751-9.506,47.075c0,16.324,3.198,32.163,9.506,47.076
		c6.091,14.401,14.811,27.334,25.915,38.439c11.105,11.104,24.038,19.824,38.439,25.915c14.913,6.308,30.752,9.506,47.076,9.506
		c20.551,0,40.779-5.23,58.637-15.143l56.251,15.072c0.417,0.113,0.841,0.167,1.263,0.167c1.277,0,2.524-0.502,3.452-1.43
		C333.287,330.822,333.769,329.025,333.318,327.34z M271.703,308.304c-1.211-0.33-2.549-0.194-3.721,0.483
		c-16.804,9.708-36.005,14.84-55.53,14.84c-61.302,0-111.174-49.874-111.174-111.175c0-61.302,49.872-111.174,111.174-111.174
		c61.302,0,111.173,49.872,111.173,111.174c0,19.683-5.126,38.669-14.729,55.355c-0.08,0.126-0.154,0.256-0.222,0.388
		c-4.401,7.577-9.727,14.675-15.92,21.141c-1.864,1.947-1.797,5.037,0.149,6.902c1.947,1.864,5.037,1.797,6.901-0.15
		c4.148-4.33,7.935-8.922,11.352-13.734l10.543,39.347L271.703,308.304z"/>
	<linearGradient id="SVGID_2_" gradientUnits="userSpaceOnUse" x1="-255.8913" y1="467.1483" x2="1752.1034" y2="-624.847">
		<stop  offset="0" style="stop-color:#00C9FF"/>
		<stop  offset="1" style="stop-color:#3B72DE"/>
	</linearGradient>
	<path fill="white" d="M292.116,166.521c-1.349-2.334-4.334-3.133-6.669-1.784c-2.333,1.348-3.133,4.333-1.784,6.667
		c7.176,12.421,10.969,26.615,10.969,41.048c0,45.315-36.866,82.181-82.18,82.181c-45.315,0-82.181-36.866-82.181-82.181
		c0-45.314,36.866-82.18,82.181-82.18c6.573,0,13.113,0.777,19.438,2.311c2.62,0.637,5.259-0.974,5.894-3.594
		c0.635-2.619-0.974-5.258-3.594-5.893c-7.077-1.716-14.391-2.586-21.738-2.586c-24.56,0-47.648,9.564-65.014,26.929
		c-17.365,17.365-26.929,40.454-26.929,65.013s9.564,47.648,26.929,65.014c17.366,17.365,40.454,26.929,65.014,26.929
		c24.558,0,47.647-9.564,65.013-26.929c17.365-17.366,26.929-40.455,26.929-65.014C304.394,196.307,300.148,180.424,292.116,166.521
		z"/>
	<linearGradient id="SVGID_3_" gradientUnits="userSpaceOnUse" x1="-273.0736" y1="435.5526" x2="1734.9265" y2="-656.4456">
		<stop  offset="0" style="stop-color:#00C9FF"/>
		<stop  offset="1" style="stop-color:#3B72DE"/>
	</linearGradient>
	<path fill="white" d="M253.542,141.265c5.688,3.29,10.984,7.27,15.742,11.826c0.946,0.906,2.161,1.355,3.375,1.355
		c1.285,0,2.567-0.504,3.526-1.504c1.864-1.947,1.797-5.037-0.149-6.902c-5.321-5.095-11.244-9.544-17.607-13.225
		c-2.333-1.35-5.319-0.553-6.669,1.781C250.411,136.929,251.209,139.915,253.542,141.265z"/>
	<linearGradient id="SVGID_4_" gradientUnits="userSpaceOnUse" x1="-268.2068" y1="444.5086" x2="1739.8015" y2="-647.4941">
		<stop  offset="0" style="stop-color:#00C9FF"/>
		<stop  offset="1" style="stop-color:#3B72DE"/>
	</linearGradient>
	<path fill="white" d="M141.013,212.452c0,9.646,7.847,17.493,17.493,17.493c9.645,0,17.492-7.847,17.492-17.493
		c0-9.646-7.847-17.493-17.492-17.493C148.861,194.959,141.013,202.806,141.013,212.452z M166.237,212.452
		c0,4.263-3.468,7.73-7.73,7.73c-4.263,0-7.731-3.468-7.731-7.73s3.468-7.731,7.731-7.731
		C162.769,204.721,166.237,208.189,166.237,212.452z"/>
	<linearGradient id="SVGID_5_" gradientUnits="userSpaceOnUse" x1="-255.8822" y1="467.1693" x2="1752.1262" y2="-624.8334">
		<stop  offset="0" style="stop-color:#00C9FF"/>
		<stop  offset="1" style="stop-color:#3B72DE"/>
	</linearGradient>
	<path fill="white" d="M195.008,212.452c0,9.646,7.847,17.493,17.492,17.493c9.646,0,17.493-7.847,17.493-17.493
		c0-9.646-7.847-17.493-17.493-17.493C202.855,194.959,195.008,202.806,195.008,212.452z M220.231,212.452
		c0,4.263-3.468,7.73-7.731,7.73c-4.262,0-7.73-3.468-7.73-7.73s3.468-7.731,7.73-7.731
		C216.763,204.721,220.231,208.189,220.231,212.452z"/>
	<linearGradient id="SVGID_6_" gradientUnits="userSpaceOnUse" x1="-243.5578" y1="489.83" x2="1764.4424" y2="-602.1683">
		<stop  offset="0" style="stop-color:#00C9FF"/>
		<stop  offset="1" style="stop-color:#3B72DE"/>
	</linearGradient>
	<path fill="white" d="M266.494,229.945c9.645,0,17.493-7.847,17.493-17.493c0-9.646-7.848-17.493-17.493-17.493
		c-9.646,0-17.493,7.847-17.493,17.493C249.001,222.098,256.848,229.945,266.494,229.945z M266.494,204.721
		c4.262,0,7.731,3.468,7.731,7.731s-3.469,7.73-7.731,7.73c-4.263,0-7.731-3.468-7.731-7.73S262.231,204.721,266.494,204.721z"/>
</g>
</svg>
