<?xml version="1.0" encoding="utf-8"?>
<!-- Generator: Adobe Illustrator 23.0.2, SVG Export Plug-In . SVG Version: 6.00 Build 0)  -->
<svg version="1.1" id="Layer_1" xmlns="http://www.w3.org/2000/svg" xmlns:xlink="http://www.w3.org/1999/xlink" x="0px" y="0px"
	 viewBox="0 0 2048 2048" style="enable-background:new 0 0 2048 2048;" xml:space="preserve">
<style type="text/css">
	.st0{fill:#3582A8;}
	.st1{fill:#C4E2FF;}
	.st2{fill:#266280;}
	.st3{fill:#60B7FF;}
</style>
<g>
	<path class="st0" d="M1752,862.25H296c-22.09,0-40,17.91-40,40v468.85c0,22.09,17.91,40,40,40h1456c22.09,0,40-17.91,40-40V902.25
		C1792,880.16,1774.09,862.25,1752,862.25z"/>
	<path class="st1" d="M1792,1216.87V386.39c0-22.81-18.49-41.29-41.29-41.29H297.29c-22.8,0-41.29,18.48-41.29,41.29v830.47v0
		L1792,1216.87L1792,1216.87z"/>
	<path class="st0" d="M1421.68,1702.9H626.32v-4.41c0-75.44,61.16-136.59,136.59-136.59h522.17c75.44,0,136.59,61.16,136.59,136.59
		V1702.9z"/>
	<g>
		<polygon class="st2" points="910.79,1411.1 828.21,1561.9 1219.79,1561.9 1137.21,1411.1 		"/>
	</g>
	<g>
		<g>
			<g>
				<g>
					<path class="st3" d="M1367.58,559H434.8c-10.26,0-18.58-8.32-18.58-18.58s8.32-18.58,18.58-18.58h932.78
						c10.26,0,18.58,8.32,18.58,18.58S1377.84,559,1367.58,559z"/>
				</g>
				<g>
					<path class="st3" d="M1367.58,679.72H434.8c-10.26,0-18.58-8.32-18.58-18.58s8.32-18.58,18.58-18.58h932.78
						c10.26,0,18.58,8.32,18.58,18.58S1377.84,679.72,1367.58,679.72z"/>
				</g>
			</g>
			<g>
				<g>
					<path class="st3" d="M1563.55,647.3c-10.26,0-18.58-8.32-18.58-18.58v-52.48c0-10.26,8.32-18.58,18.58-18.58
						c17.13,0,31.07-13.94,31.07-31.07c0-17.13-13.94-31.07-31.07-31.07c-12.09,0-23.18,7.1-28.24,18.09
						c-4.29,9.32-15.33,13.4-24.65,9.1c-9.32-4.29-13.4-15.33-9.1-24.65c11.11-24.12,35.44-39.71,61.99-39.71
						c37.62,0,68.23,30.61,68.23,68.23c0,31.18-21.03,57.55-49.65,65.66v36.47C1582.14,638.98,1573.82,647.3,1563.55,647.3z"/>
				</g>
				<g>
					<circle class="st3" cx="1563.55" cy="699.79" r="24.83"/>
				</g>
			</g>
		</g>
		<g>
			<g>
				<g>
					<path class="st3" d="M1563.55,1007.7c-10.26,0-18.58-8.32-18.58-18.58v-52.48c0-10.26,8.32-18.58,18.58-18.58
						c17.13,0,31.07-13.94,31.07-31.07s-13.94-31.07-31.07-31.07c-12.09,0-23.18,7.1-28.24,18.09c-4.29,9.32-15.33,13.4-24.65,9.1
						c-9.32-4.29-13.4-15.33-9.1-24.65c11.11-24.12,35.44-39.71,61.99-39.71c37.62,0,68.23,30.61,68.23,68.23
						c0,31.18-21.03,57.55-49.65,65.66v36.47C1582.14,999.38,1573.82,1007.7,1563.55,1007.7z"/>
				</g>
				<g>
					<circle class="st3" cx="1563.55" cy="1060.2" r="24.83"/>
				</g>
			</g>
			<g>
				<g>
					<g>
						<path class="st3" d="M1367.58,919.41H434.8c-10.26,0-18.58-8.32-18.58-18.58s8.32-18.58,18.58-18.58h932.78
							c10.26,0,18.58,8.32,18.58,18.58S1377.84,919.41,1367.58,919.41z"/>
					</g>
					<g>
						<path class="st3" d="M1367.58,1040.12H434.8c-10.26,0-18.58-8.32-18.58-18.58c0-10.26,8.32-18.58,18.58-18.58h932.78
							c10.26,0,18.58,8.32,18.58,18.58C1386.16,1031.8,1377.84,1040.12,1367.58,1040.12z"/>
					</g>
				</g>
			</g>
		</g>
	</g>
</g>
</svg>
